<?xml version="1.0" standalone="no"?>
<!DOCTYPE svg PUBLIC "-//W3C//DTD SVG 20010904//EN"
 "http://www.w3.org/TR/2001/REC-SVG-20010904/DTD/svg10.dtd">
<svg version="1.0" xmlns="http://www.w3.org/2000/svg"
 width="300.000000pt" height="188.000000pt" viewBox="0 0 300.000000 188.000000"
 preserveAspectRatio="xMidYMid meet">
<metadata>
Created by potrace 1.10, written by Peter Selinger 2001-2011
</metadata>
<rect width="100%" height="100%" fill="black" />
<g transform="translate(0.000000,188.000000) scale(0.100000,-0.100000)"
fill="#FFD700" stroke="none">
<path d="M17 1873 c-12 -11 -8 -1873 3 -1873 6 0 10 39 10 98 0 900 7 1751 14
1765 6 12 4 17 -6 17 -8 0 -18 -3 -21 -7z"/>
<path d="M632 1237 c-26 -28 -52 -98 -52 -142 0 -18 13 -59 30 -91 34 -67 36
-77 16 -93 -18 -15 -25 -77 -14 -119 5 -17 31 -58 57 -90 27 -32 56 -72 65
-89 9 -18 21 -35 28 -39 14 -9 58 40 58 66 0 11 13 34 29 52 30 34 51 92 51
141 0 50 -38 138 -103 236 -35 53 -73 117 -85 144 -24 53 -46 60 -80 24z m74
-90 c9 -18 45 -72 79 -122 61 -88 95 -163 95 -208 0 -27 -32 -98 -51 -114 -12
-10 -14 -6 -11 26 5 54 -25 107 -118 208 -93 99 -108 135 -86 206 7 25 24 60
37 78 l23 33 8 -37 c4 -21 15 -52 24 -70z m27 -351 c63 -92 74 -130 51 -181
-13 -32 -18 -36 -21 -20 -2 11 -6 30 -8 42 -3 12 -32 53 -65 90 -68 77 -76
112 -38 173 l22 35 6 -35 c3 -19 27 -66 53 -104z"/>
<path d="M1435 978 c-7 -5 -27 -35 -43 -67 l-30 -60 23 -21 c16 -15 33 -21 57
-19 18 2 49 -1 69 -5 27 -6 43 -4 61 8 16 10 28 12 38 6 20 -13 127 -13 135 0
4 6 16 5 33 -4 19 -10 51 -13 102 -11 263 13 411 18 456 16 66 -2 84 16 81 84
-2 43 -6 52 -28 62 -20 10 -34 10 -58 2 -23 -8 -39 -8 -56 -1 -36 17 -182 14
-209 -3 -21 -14 -25 -14 -36 0 -17 20 -47 19 -59 -2 -9 -17 -11 -16 -30 1 -19
17 -41 19 -256 20 -130 1 -242 -2 -250 -6z m35 -63 c0 -53 -27 -89 -59 -77
-11 4 -20 10 -20 15 -2 24 1 28 19 22 18 -6 20 -2 20 39 0 39 3 46 20 46 17 0
20 -7 20 -45z m110 30 c0 -10 -11 -15 -35 -15 -19 0 -35 -4 -35 -10 0 -5 12
-10 26 -10 16 0 24 -5 21 -12 -2 -7 -11 -13 -20 -13 -27 0 -14 -20 13 -20 15
-1 25 -7 25 -15 0 -11 -12 -15 -45 -14 l-45 1 -1 62 -1 61 48 0 c37 0 49 -4
49 -15z m56 -22 l10 -38 10 35 c6 19 16 35 24 35 8 0 18 -16 23 -35 l10 -35
10 38 c5 20 15 37 23 37 17 0 17 -12 -4 -75 -18 -54 -45 -67 -50 -25 -6 41
-19 44 -26 6 -10 -54 -29 -43 -53 29 -20 60 -20 65 -4 65 12 0 21 -12 27 -37z
m234 22 c0 -10 -10 -15 -30 -15 -16 0 -30 -4 -30 -10 0 -5 9 -10 20 -10 11 0
20 -7 20 -15 0 -8 -9 -15 -20 -15 -11 0 -20 -5 -20 -11 0 -7 12 -10 30 -7 23
3 30 1 30 -11 0 -13 -10 -16 -45 -16 l-45 0 0 63 0 62 45 0 c33 0 45 -4 45
-15z m50 -35 c0 -49 1 -50 25 -44 21 5 25 3 25 -15 0 -18 -6 -21 -40 -21 l-40
0 0 65 c0 51 3 65 15 65 11 0 15 -12 15 -50z m100 1 c0 -44 2 -49 20 -44 15 4
20 0 20 -16 0 -19 -5 -22 -36 -19 l-36 3 -4 63 c-4 57 -3 62 16 62 17 0 20 -7
20 -49z m150 34 c0 -10 -10 -15 -30 -15 -16 0 -30 -4 -30 -10 0 -5 9 -10 20
-10 11 0 20 -7 20 -15 0 -8 -9 -15 -20 -15 -11 0 -20 -5 -20 -11 0 -7 12 -10
30 -7 23 4 30 1 30 -12 0 -13 -9 -16 -42 -14 l-43 2 -3 61 -3 61 46 0 c33 0
45 -4 45 -15z m108 3 c15 -15 16 -54 2 -63 -7 -4 -7 -12 0 -25 14 -26 13 -30
-9 -30 -10 0 -21 9 -24 20 -3 11 -10 20 -16 20 -6 0 -11 -9 -11 -20 0 -11 -7
-20 -15 -20 -12 0 -15 14 -15 65 l0 65 38 0 c21 0 43 -5 50 -12z m121 3 c21
-14 4 -29 -26 -23 -31 5 -26 -5 9 -22 57 -28 11 -94 -47 -68 -27 12 -36 49
-10 38 8 -3 22 -9 30 -12 26 -11 16 12 -10 24 -31 14 -41 37 -25 57 14 16 57
20 79 6z"/>
<path d="M2220 915 c0 -8 9 -15 20 -15 11 0 20 7 20 15 0 8 -9 15 -20 15 -11
0 -20 -7 -20 -15z"/>
<path d="M987 963 c-19 -22 -23 -93 -7 -123 8 -15 24 -18 102 -20 51 0 119 -3
151 -5 49 -3 61 0 86 20 25 22 28 29 23 72 -2 26 -9 54 -14 61 -22 26 -68 6
-68 -30 0 -11 -7 -18 -20 -18 -11 0 -20 6 -20 13 0 17 -32 47 -49 47 -7 0 -24
-9 -38 -20 -24 -18 -28 -19 -43 -5 -29 26 -82 30 -103 8z m84 -13 c21 -12 25
-40 8 -57 -8 -8 -8 -17 0 -31 15 -28 14 -32 -8 -32 -11 0 -23 9 -26 20 -3 11
-11 20 -16 20 -5 0 -9 -9 -9 -20 0 -11 -7 -20 -15 -20 -12 0 -15 14 -15 65 l0
65 31 0 c17 0 39 -5 50 -10z m136 -52 c25 -66 23 -79 -7 -60 -24 15 -60 16
-60 2 0 -5 -7 -10 -15 -10 -20 0 -19 8 6 74 29 75 48 74 76 -6z m113 21 c0
-22 -4 -48 -10 -58 -19 -37 -70 -36 -70 1 0 15 5 18 20 13 18 -6 20 -2 20 39
0 39 3 46 20 46 17 0 20 -7 20 -41z"/>
</g>
</svg>
